<?xml version="1.0" encoding="UTF-8"?>
<svg id="_图层_1" data-name="图层 1" xmlns="http://www.w3.org/2000/svg" xmlns:xlink="http://www.w3.org/1999/xlink" viewBox="0 0 300.47 300.47">
  <defs>
    <style>
      .cls-1 {
        fill: url(#_未命名的渐变_8);
      }

      .cls-2 {
        fill: url(#_未命名的渐变_9);
      }

      .cls-3 {
        fill: url(#_未命名的渐变_2);
      }

      .cls-4 {
        fill: url(#_未命名的渐变_10);
      }

      .cls-5 {
        fill: url(#_未命名的渐变_7);
      }
    </style>
    <linearGradient id="_未命名的渐变_9" data-name="未命名的渐变 9" x1="105.93" y1="-13.82" x2="310.51" y2="190.75" gradientUnits="userSpaceOnUse">
      <stop offset="0" stop-color="#4ac5ff"/>
      <stop offset="1" stop-color="#bd34fe"/>
    </linearGradient>
    <linearGradient id="_未命名的渐变_8" data-name="未命名的渐变 8" x1="-9.41" y1="109.09" x2="195.41" y2="313.91" gradientUnits="userSpaceOnUse">
      <stop offset="0" stop-color="#4ac5ff"/>
      <stop offset="1" stop-color="#bd34fe"/>
    </linearGradient>
    <linearGradient id="_未命名的渐变_10" data-name="未命名的渐变 10" x1="251.43" y1="244.37" x2="286.34" y2="279.28" gradientUnits="userSpaceOnUse">
      <stop offset="0" stop-color="#fff"/>
      <stop offset="0" stop-color="#bd34fe"/>
    </linearGradient>
    <linearGradient id="_未命名的渐变_7" data-name="未命名的渐变 7" x1="11.7" y1="26.81" x2="54.22" y2="69.32" gradientUnits="userSpaceOnUse">
      <stop offset="1" stop-color="#4ac5ff"/>
      <stop offset="1" stop-color="#fff"/>
    </linearGradient>
    <linearGradient id="_未命名的渐变_2" data-name="未命名的渐变 2" x1="150" y1="89.12" x2="150" y2="217.77" gradientTransform="translate(0 304.93) scale(1 -1)" gradientUnits="userSpaceOnUse">
      <stop offset="0" stop-color="#ffdf41"/>
      <stop offset=".57" stop-color="#ffbd19"/>
      <stop offset="1" stop-color="#ffa800"/>
    </linearGradient>
  </defs>
  <g>
    <path class="cls-2" d="M150.23,0c-29.37-.04-58.1,8.56-82.62,24.74-4.24,2.86-5.41,8.58-2.64,12.88,2.81,4.36,8.62,5.61,12.98,2.8,20.73-13.67,45.56-21.63,72.27-21.63,72.6,0,131.45,58.85,131.45,131.45,0,15.25-2.6,29.88-7.36,43.48l-27.32-27.29c-3.61-3.36-9.2-3.36-12.8,0-3.79,3.54-4,9.48-.47,13.27l37.27,37.27c.77,.77,1.66,1.39,2.64,1.86,4.69,2.21,10.29,.2,12.5-4.49,9.19-19.46,14.32-41.19,14.32-64.1C300.47,67.27,233.2,0,150.23,0Z"/>
    <path class="cls-1" d="M223.85,259.15c-21.01,14.23-46.32,22.54-73.61,22.54-72.6,0-131.45-58.85-131.45-131.45-.02-14.81,2.46-29.51,7.35-43.49l27.62,27.59c.15,.16,.31,.32,.47,.47,3.79,3.54,9.74,3.33,13.27-.47s3.33-9.74-.47-13.27L29.46,83.5c-.77-.77-1.66-1.39-2.64-1.86-4.69-2.21-10.29-.2-12.5,4.49C5.13,105.59,0,127.32,0,150.23c0,82.97,67.27,150.23,150.23,150.23,29.99,.04,59.3-8.93,84.13-25.75,4.3-2.9,5.43-8.74,2.52-13.04-2.9-4.3-8.74-5.43-13.04-2.52Z"/>
    <path class="cls-4" d="M270.43,228.59c-.19-.44-.62-.72-1.1-.72h-.9c-.48,0-.91,.28-1.1,.72l-19.93,45.59c-.07,.15-.1,.31-.1,.48,0,.66,.54,1.2,1.2,1.2h3.56c.47,0,.9-.28,1.1-.71l6.09-13.69h19.25l6.1,13.69c.19,.43,.62,.71,1.1,.71h3.56c.17,0,.33-.03,.48-.1,.61-.27,.88-.97,.62-1.58l-19.92-45.59Zm5.4,25.88h-13.9l6.95-17.6,6.95,17.6h0Z"/>
    <path class="cls-5" d="M8.2,37.51h4.99c.07,.15,.17,.29,.3,.41l14.28,13.06-14.14,15.46c-.47,.51-.43,1.31,.08,1.77l3.07,2.81c.51,.47,1.31,.43,1.77-.08l14.14-15.46,17.59,16.09c.51,.47,1.31,.43,1.77-.08l2.81-3.07c.47-.51,.43-1.31-.08-1.77l-17.59-16.09,11.94-13.05h5.48c.69,0,1.26-.56,1.26-1.26v-4.16c0-.69-.56-1.26-1.26-1.26h-20.43l1.75-1.75c.49-.49,.49-1.28,0-1.78l-6.63-6.63c-.49-.49-1.28-.49-1.78,0l-2.94,2.94c-.49,.49-.49,1.28,0,1.78l5.44,5.44H8.2c-.69,0-1.26,.56-1.26,1.26v4.16c0,.69,.56,1.26,1.26,1.26Zm24.07,8.55l-9.34-8.55h17.16l-7.82,8.55Z"/>
  </g>
  <g id="_图层_1-2" data-name=" 图层 1-2">
    <path class="cls-3" d="M132.5,96.22v78.37c0,5-4.06,9.06-9.06,9.06h-9.06c-5,0-9.06-4.06-9.06-9.06V96.22c0-5-4.06-9.06-9.06-9.06H30.26c-5,0-9.06,4.06-9.06,9.06v110.52c0,5,4.06,9.06,9.06,9.06h0c5,0,9.06-4.06,9.06-9.06v-30.39c0-5,4.06-9.06,9.06-9.06h9.05c5,0,9.06,4.06,9.06,9.06v30.39c0,5,4.06,9.06,9.06,9.06h83.51c5,0,9.06-4.05,9.06-9.05v-78.37c0-5,4.06-9.06,9.06-9.06h9.05c5,0,9.06,4.06,9.06,9.06v78.37c0,5,4.06,9.06,9.06,9.06h65.38c5,0,9.06-4.06,9.06-9.06V96.22c0-5-4.06-9.06-9.06-9.06H141.56c-5,0-9.06,4.06-9.06,9.06Zm-75.07,54.87h-9.05c-5,0-9.06-4.06-9.06-9.06v-29.64c0-5,4.06-9.06,9.06-9.06h9.05c5,0,9.06,4.06,9.06,9.06v29.64c0,5-4.06,9.06-9.06,9.06Zm176.08,23.49v-46.2c0-5,4.06-9.06,9.06-9.06h7.76c5,0,9.06,4.06,9.06,9.06v46.21c0,5-4.06,9.06-9.06,9.06h-7.76c-5,0-9.06-4.06-9.06-9.06h0Z"/>
  </g>
</svg>